<svg xmlns="http://www.w3.org/2000/svg" xmlns:xlink="http://www.w3.org/1999/xlink" id="Layer_1" data-name="Layer 1" viewBox="0 0 900 900"><defs><style>.cls-1{fill:url(#linear-gradient);}.cls-2{fill:url(#linear-gradient-2);}.cls-3{fill:#23356d;}.cls-4{fill:#67ce4d;}</style><linearGradient id="linear-gradient" x1="137.07" y1="743.47" x2="137.07" y2="156.53" gradientUnits="userSpaceOnUse"><stop offset="0" stop-color="#aae8ff"></stop><stop offset="0.78" stop-color="#0790ff"></stop></linearGradient><linearGradient id="linear-gradient-2" x1="524.8" y1="743.47" x2="524.8" y2="156.53" xlink:href="#linear-gradient"></linearGradient></defs><path class="cls-1" d="M128,367h0a43.84,43.84,0,0,0-43.72-43.72h-40A43.85,43.85,0,0,0,.59,367h0a43.85,43.85,0,0,0,43.72,43.72h40A43.84,43.84,0,0,0,128,367ZM229.85,656h-40a43.72,43.72,0,1,0,0,87.44h40a43.72,43.72,0,0,0,0-87.44ZM215.2,156.53a43.72,43.72,0,1,0,43.72,43.72A43.73,43.73,0,0,0,215.2,156.53Z"></path><path class="cls-2" d="M676.13,156.53H320.42a43.61,43.61,0,0,0-30.87,12.87,38.27,38.27,0,0,0-2.85,3.14A43.72,43.72,0,0,0,320.42,244h53.67a39.66,39.66,0,0,1,0,79.31H195.7a43.72,43.72,0,1,0,0,87.44H313.39a41.5,41.5,0,0,1,4.52,82.75H281.67a43.72,43.72,0,1,0,0,87.44h94.6a37.56,37.56,0,0,1,0,75.12H345.4a43.72,43.72,0,1,0,0,87.44H676.13c122.34,0,221.51-99.17,221.51-221.51V378C897.64,255.71,798.47,156.53,676.13,156.53Z"></path><circle class="cls-3" cx="512.08" cy="342.78" r="14.24"></circle><circle class="cls-3" cx="549.6" cy="342.78" r="14.24"></circle><circle class="cls-4" cx="587.12" cy="342.78" r="14.24"></circle><path class="cls-3" d="M817.4,311.06a8.88,8.88,0,0,1,8.87,8.87V580.08A8.88,8.88,0,0,1,817.4,589H476.48a8.87,8.87,0,0,1-8.87-8.87V319.93a8.87,8.87,0,0,1,8.87-8.87H817.4m0-11.84H476.48a20.77,20.77,0,0,0-20.71,20.71V580.08a20.77,20.77,0,0,0,20.71,20.7H817.4a20.77,20.77,0,0,0,20.71-20.7V319.93a20.77,20.77,0,0,0-20.71-20.71Z"></path><rect class="cls-3" x="455.78" y="368.51" width="382.32" height="11.84"></rect><rect class="cls-3" x="748.76" y="337.15" width="64.52" height="11.25"></rect><rect class="cls-3" x="582.55" y="469.81" width="127.73" height="15.48" transform="translate(-27.78 914.99) rotate(-69.43)"></rect><path class="cls-3" d="M578.75,472.73l28.83-28.83,3.31-3.31a5.93,5.93,0,0,0,0-8.38,49.52,49.52,0,0,0-16.11-10.11c-9.18-3.41-22.85-4.77-35.78,8.16-5.45,5.45-10.67,10.69-15.42,15.45a.12.12,0,0,0-.05.05l-.07.07-.71.72-1.63,1.63-1.59,1.6c-1.56,1.57-3.06,3.07-4.47,4.5l-6.33,6.38-1.08,1.09-1,1-2.57,2.59-.7.7-2.21,2.23-.22.23h0a5.22,5.22,0,0,0-.39.43s0,0,0,0-.23.31-.34.46c0,0,0,0,0,0a4.28,4.28,0,0,0-.37.66,5.93,5.93,0,0,0,1.15,6.76l4,3.95,18.68,18.69,15.22,15.22c8,8,16.37,10.59,23.75,10.59a36.24,36.24,0,0,0,12.05-2.17A48.11,48.11,0,0,0,606.28,517a41.66,41.66,0,0,0,4.53-3.65,5.92,5.92,0,0,0,.08-8.44Zm-45.26-.07,10.68-10.76,2.1-2.11,1.39-1.41c2.6-2.61,5.4-5.43,8.36-8.38,3.59-3.62,7.41-7.44,11.34-11.37,6.83-6.84,14.35-8.64,23-5.55a35.15,35.15,0,0,1,7.47,3.83l-27.45,27.45L562,472.73,547.78,487Zm56.84,39.44c-8.72,3-16.29,1.12-23.15-5.74l-11-11,14.22-14.23,27.37,27.37A34.8,34.8,0,0,1,590.33,512.1Z"></path><path class="cls-3" d="M774.08,470.11a4.34,4.34,0,0,0-.38-.66s0,0,0,0a4.52,4.52,0,0,0-.34-.46v0a4,4,0,0,0-.4-.43h0l-.22-.23-2.21-2.23-.7-.7-2.57-2.59-1-1-1.08-1.09-6.34-6.38c-1.4-1.43-2.9-2.93-4.47-4.5l-1.58-1.6-1.63-1.63-.71-.72-.08-.07a.12.12,0,0,0-.05-.05c-4.74-4.76-10-10-15.42-15.45-12.93-12.93-26.59-11.57-35.78-8.16A49.52,49.52,0,0,0,683,432.21a5.91,5.91,0,0,0,0,8.38l3.3,3.31,28.84,28.83L683,504.87a5.9,5.9,0,0,0,.07,8.44,42.9,42.9,0,0,0,4.53,3.65,48.11,48.11,0,0,0,11.67,6.19,36.29,36.29,0,0,0,12,2.17c7.38,0,15.72-2.56,23.75-10.59l37.86-37.86A6,6,0,0,0,774.08,470.11Zm-78-33.2a35.24,35.24,0,0,1,7.48-3.83c8.63-3.09,16.16-1.29,23,5.55,3.92,3.93,7.74,7.75,11.34,11.37,2.95,2.95,5.75,5.77,8.35,8.38l1.39,1.41,2.1,2.11,10.68,10.76L746.09,487l-14.22-14.22-8.37-8.37Zm30.65,69.45c-6.86,6.86-14.44,8.74-23.16,5.74a35,35,0,0,1-7.41-3.63L723.5,481.1l14.23,14.23Z"></path></svg>